<mxfile host="app.diagrams.net" agent="Mozilla/5.0 (Windows NT 10.0; Win64; x64) AppleWebKit/537.36 (KHTML, like Gecko) Chrome/141.0.0.0 Safari/537.36" version="28.2.7">
  <diagram name="Page-1" id="qKGZkJqpqI9ya5v9wqbd">
    <mxGraphModel dx="868" dy="439" grid="1" gridSize="10" guides="1" tooltips="1" connect="1" arrows="1" fold="1" page="1" pageScale="1" pageWidth="850" pageHeight="1100" math="0" shadow="0">
      <root>
        <mxCell id="0" />
        <mxCell id="1" parent="0" />
        <mxCell id="OQGyiHXeJnhjR0NqSSpO-1" value="" style="rounded=0;whiteSpace=wrap;html=1;fillColor=none;" vertex="1" parent="1">
          <mxGeometry x="70" y="100" width="120" height="410" as="geometry" />
        </mxCell>
        <mxCell id="OQGyiHXeJnhjR0NqSSpO-2" value="" style="rounded=0;whiteSpace=wrap;html=1;fillColor=none;" vertex="1" parent="1">
          <mxGeometry x="240" y="110" width="430" height="410" as="geometry" />
        </mxCell>
        <mxCell id="OQGyiHXeJnhjR0NqSSpO-3" value="" style="rounded=0;whiteSpace=wrap;html=1;fillColor=none;" vertex="1" parent="1">
          <mxGeometry x="700" y="110" width="120" height="410" as="geometry" />
        </mxCell>
        <mxCell id="OQGyiHXeJnhjR0NqSSpO-4" value="Sources" style="rounded=0;whiteSpace=wrap;html=1;strokeColor=none;fontSize=24;" vertex="1" parent="1">
          <mxGeometry x="70" y="60" width="120" height="60" as="geometry" />
        </mxCell>
        <mxCell id="OQGyiHXeJnhjR0NqSSpO-5" value="Data Warehouse&lt;div&gt;&lt;br&gt;&lt;/div&gt;" style="rounded=0;whiteSpace=wrap;html=1;strokeColor=none;fontSize=24;" vertex="1" parent="1">
          <mxGeometry x="300" y="70" width="250" height="40" as="geometry" />
        </mxCell>
        <mxCell id="OQGyiHXeJnhjR0NqSSpO-6" value="&lt;div&gt;Consumers&lt;/div&gt;" style="rounded=0;whiteSpace=wrap;html=1;strokeColor=none;fontSize=24;" vertex="1" parent="1">
          <mxGeometry x="670" y="50" width="165" height="60" as="geometry" />
        </mxCell>
        <mxCell id="OQGyiHXeJnhjR0NqSSpO-7" value="Bronze Layer" style="rounded=0;whiteSpace=wrap;html=1;fillColor=#f0a30a;fontColor=#000000;strokeColor=#BD7000;" vertex="1" parent="1">
          <mxGeometry x="260" y="120" width="120" height="50" as="geometry" />
        </mxCell>
        <mxCell id="OQGyiHXeJnhjR0NqSSpO-8" value="" style="rounded=0;whiteSpace=wrap;html=1;fillColor=none;fontColor=#000000;strokeColor=#BD7000;" vertex="1" parent="1">
          <mxGeometry x="260" y="180" width="120" height="320" as="geometry" />
        </mxCell>
        <mxCell id="OQGyiHXeJnhjR0NqSSpO-9" value="Silver Layer" style="rounded=0;whiteSpace=wrap;html=1;fillColor=#647687;fontColor=#ffffff;strokeColor=#314354;" vertex="1" parent="1">
          <mxGeometry x="400" y="120" width="120" height="50" as="geometry" />
        </mxCell>
        <mxCell id="OQGyiHXeJnhjR0NqSSpO-10" value="Gold Layer" style="rounded=0;whiteSpace=wrap;html=1;fillColor=#e3c800;fontColor=#000000;strokeColor=#B09500;" vertex="1" parent="1">
          <mxGeometry x="540" y="120" width="120" height="50" as="geometry" />
        </mxCell>
        <mxCell id="OQGyiHXeJnhjR0NqSSpO-11" value="" style="rounded=0;whiteSpace=wrap;html=1;fillColor=none;fontColor=#ffffff;strokeColor=#314354;" vertex="1" parent="1">
          <mxGeometry x="400" y="180" width="120" height="320" as="geometry" />
        </mxCell>
        <mxCell id="OQGyiHXeJnhjR0NqSSpO-12" value="" style="rounded=0;whiteSpace=wrap;html=1;fillColor=none;fontColor=#000000;strokeColor=#B09500;" vertex="1" parent="1">
          <mxGeometry x="540" y="180" width="120" height="320" as="geometry" />
        </mxCell>
        <mxCell id="OQGyiHXeJnhjR0NqSSpO-13" value="CRM" style="image;aspect=fixed;html=1;points=[];align=center;fontSize=12;image=img/lib/azure2/general/Folder_Blank.svg;" vertex="1" parent="1">
          <mxGeometry x="95.5" y="124" width="69" height="56.00000000000001" as="geometry" />
        </mxCell>
        <mxCell id="OQGyiHXeJnhjR0NqSSpO-14" value="" style="points=[];aspect=fixed;html=1;align=center;shadow=0;dashed=0;fillColor=#FF6A00;strokeColor=none;shape=mxgraph.alibaba_cloud.apsara_file_storage_for_hdfs;" vertex="1" parent="1">
          <mxGeometry x="134.12" y="146" width="30.38" height="30" as="geometry" />
        </mxCell>
        <mxCell id="OQGyiHXeJnhjR0NqSSpO-15" value="ERP" style="image;aspect=fixed;html=1;points=[];align=center;fontSize=12;image=img/lib/azure2/general/Folder_Blank.svg;" vertex="1" parent="1">
          <mxGeometry x="100" y="250" width="69" height="56.00000000000001" as="geometry" />
        </mxCell>
        <mxCell id="OQGyiHXeJnhjR0NqSSpO-16" value="" style="points=[];aspect=fixed;html=1;align=center;shadow=0;dashed=0;fillColor=#FF6A00;strokeColor=none;shape=mxgraph.alibaba_cloud.apsara_file_storage_for_hdfs;" vertex="1" parent="1">
          <mxGeometry x="138.62" y="270" width="30.38" height="30" as="geometry" />
        </mxCell>
        <mxCell id="OQGyiHXeJnhjR0NqSSpO-17" value="" style="endArrow=none;html=1;rounded=0;" edge="1" parent="1">
          <mxGeometry width="50" height="50" relative="1" as="geometry">
            <mxPoint x="85" y="345" as="sourcePoint" />
            <mxPoint x="170" y="345" as="targetPoint" />
          </mxGeometry>
        </mxCell>
        <mxCell id="OQGyiHXeJnhjR0NqSSpO-18" value="Object Type: CSV&lt;br&gt;Interface: Files in Folder&lt;div&gt;&lt;br&gt;&lt;/div&gt;" style="text;html=1;whiteSpace=wrap;strokeColor=none;fillColor=none;align=center;verticalAlign=middle;rounded=0;" vertex="1" parent="1">
          <mxGeometry x="80" y="380" width="90" height="30" as="geometry" />
        </mxCell>
        <mxCell id="OQGyiHXeJnhjR0NqSSpO-22" value="Raw Data" style="image;html=1;image=img/lib/clip_art/computers/Database_128x128.png;imageBackground=light-dark(#FFFFFF,#994C00);" vertex="1" parent="1">
          <mxGeometry x="280" y="245" width="80" height="80" as="geometry" />
        </mxCell>
        <mxCell id="OQGyiHXeJnhjR0NqSSpO-23" value="Clean, Standard Data" style="image;html=1;image=img/lib/clip_art/computers/Database_128x128.png;imageBackground=light-dark(#FFFFFF,#CCFFE6);" vertex="1" parent="1">
          <mxGeometry x="420" y="245" width="80" height="80" as="geometry" />
        </mxCell>
        <mxCell id="OQGyiHXeJnhjR0NqSSpO-24" value="Business Ready Data&lt;div&gt;&lt;br&gt;&lt;/div&gt;" style="image;html=1;image=img/lib/clip_art/computers/Database_128x128.png;imageBackground=light-dark(#FFFFFF,#FFCC99);" vertex="1" parent="1">
          <mxGeometry x="560" y="250" width="80" height="80" as="geometry" />
        </mxCell>
        <mxCell id="OQGyiHXeJnhjR0NqSSpO-25" value="" style="shape=flexArrow;endArrow=classic;html=1;rounded=0;entryX=0.007;entryY=0.429;entryDx=0;entryDy=0;entryPerimeter=0;" edge="1" parent="1" target="OQGyiHXeJnhjR0NqSSpO-2">
          <mxGeometry width="50" height="50" relative="1" as="geometry">
            <mxPoint x="195.56" y="286.76" as="sourcePoint" />
            <mxPoint x="260.00000000000006" y="283.24" as="targetPoint" />
          </mxGeometry>
        </mxCell>
        <mxCell id="OQGyiHXeJnhjR0NqSSpO-26" value="" style="shape=flexArrow;endArrow=classic;html=1;rounded=0;" edge="1" parent="1">
          <mxGeometry width="50" height="50" relative="1" as="geometry">
            <mxPoint x="370" y="291" as="sourcePoint" />
            <mxPoint x="410" y="291" as="targetPoint" />
            <Array as="points">
              <mxPoint x="400" y="291" />
            </Array>
          </mxGeometry>
        </mxCell>
        <mxCell id="OQGyiHXeJnhjR0NqSSpO-31" value="" style="shape=flexArrow;endArrow=classic;html=1;rounded=0;" edge="1" parent="1">
          <mxGeometry width="50" height="50" relative="1" as="geometry">
            <mxPoint x="500" y="284.58" as="sourcePoint" />
            <mxPoint x="540" y="284.58" as="targetPoint" />
            <Array as="points">
              <mxPoint x="530" y="284.58" />
            </Array>
          </mxGeometry>
        </mxCell>
        <mxCell id="OQGyiHXeJnhjR0NqSSpO-32" value="" style="shape=flexArrow;endArrow=classic;html=1;rounded=0;" edge="1" parent="1">
          <mxGeometry width="50" height="50" relative="1" as="geometry">
            <mxPoint x="660" y="289.58" as="sourcePoint" />
            <mxPoint x="700" y="289.58" as="targetPoint" />
            <Array as="points">
              <mxPoint x="690" y="289.58" />
            </Array>
          </mxGeometry>
        </mxCell>
        <mxCell id="OQGyiHXeJnhjR0NqSSpO-33" value="" style="endArrow=none;html=1;rounded=0;" edge="1" parent="1">
          <mxGeometry width="50" height="50" relative="1" as="geometry">
            <mxPoint x="277.5" y="360" as="sourcePoint" />
            <mxPoint x="362.5" y="360" as="targetPoint" />
          </mxGeometry>
        </mxCell>
        <mxCell id="OQGyiHXeJnhjR0NqSSpO-34" value="" style="endArrow=none;html=1;rounded=0;" edge="1" parent="1">
          <mxGeometry width="50" height="50" relative="1" as="geometry">
            <mxPoint x="420" y="360" as="sourcePoint" />
            <mxPoint x="505" y="360" as="targetPoint" />
          </mxGeometry>
        </mxCell>
        <mxCell id="OQGyiHXeJnhjR0NqSSpO-35" value="" style="endArrow=none;html=1;rounded=0;" edge="1" parent="1">
          <mxGeometry width="50" height="50" relative="1" as="geometry">
            <mxPoint x="560" y="370" as="sourcePoint" />
            <mxPoint x="645" y="370" as="targetPoint" />
          </mxGeometry>
        </mxCell>
        <mxCell id="OQGyiHXeJnhjR0NqSSpO-36" value="Object Type: Table&lt;br&gt;Load Method: Batch Process&lt;br&gt;Full Load (Trunc &amp;amp; Insert)&lt;br&gt;&lt;br&gt;&lt;br&gt;&lt;div&gt;&lt;br&gt;&lt;/div&gt;" style="text;html=1;whiteSpace=wrap;strokeColor=none;fillColor=none;align=center;verticalAlign=middle;rounded=0;" vertex="1" parent="1">
          <mxGeometry x="270" y="430" width="90" height="30" as="geometry" />
        </mxCell>
        <mxCell id="OQGyiHXeJnhjR0NqSSpO-37" value="Object Type: Table&lt;br&gt;Load Method: Batch Process&lt;br&gt;Full Load (Trunc &amp;amp; Insert)&lt;br&gt;&lt;br&gt;&lt;br&gt;&lt;div&gt;&lt;br&gt;&lt;/div&gt;" style="text;html=1;whiteSpace=wrap;strokeColor=none;fillColor=none;align=center;verticalAlign=middle;rounded=0;" vertex="1" parent="1">
          <mxGeometry x="415" y="430" width="90" height="30" as="geometry" />
        </mxCell>
        <mxCell id="OQGyiHXeJnhjR0NqSSpO-38" value="Object Type: Views&lt;br&gt;Load Method: No Loads&lt;br&gt;&lt;br&gt;&lt;br&gt;&lt;div&gt;&lt;br&gt;&lt;/div&gt;" style="text;html=1;whiteSpace=wrap;strokeColor=none;fillColor=none;align=center;verticalAlign=middle;rounded=0;" vertex="1" parent="1">
          <mxGeometry x="550" y="430" width="90" height="30" as="geometry" />
        </mxCell>
        <mxCell id="OQGyiHXeJnhjR0NqSSpO-41" value="BI Reporting" style="image;aspect=fixed;html=1;points=[];align=center;fontSize=12;image=img/lib/azure2/analytics/Power_BI_Embedded.svg;" vertex="1" parent="1">
          <mxGeometry x="735" y="160" width="51" height="68" as="geometry" />
        </mxCell>
        <mxCell id="OQGyiHXeJnhjR0NqSSpO-42" value="Ad hoc SQL&lt;div&gt;Queris&lt;/div&gt;" style="verticalLabelPosition=bottom;aspect=fixed;html=1;shape=mxgraph.salesforce.analytics;fillColorStyles=fillColor2,fillColor3,fillColor4,fillColor5,fillColor6,fillColor7,fillColor8;fillColor2=#7099a6;fillColor3=#eb912c;fillColor4=#c72035;fillColor5=#1f447e;fillColor6=#59879b;fillColor7=#e8762c;fillColor8=#5b6591;fillColor=none;strokeColor=none;" vertex="1" parent="1">
          <mxGeometry x="735" y="286" width="60" height="58.8" as="geometry" />
        </mxCell>
        <mxCell id="OQGyiHXeJnhjR0NqSSpO-43" value="Machine Learning" style="points=[];aspect=fixed;html=1;align=center;shadow=0;dashed=0;fillColor=#FF6A00;strokeColor=none;shape=mxgraph.alibaba_cloud.machine_learning;" vertex="1" parent="1">
          <mxGeometry x="740" y="419.95" width="50" height="50.3" as="geometry" />
        </mxCell>
        <mxCell id="OQGyiHXeJnhjR0NqSSpO-47" value="" style="sketch=0;outlineConnect=0;fontColor=#232F3E;gradientColor=none;fillColor=#C925D1;strokeColor=none;dashed=0;verticalLabelPosition=bottom;verticalAlign=top;align=center;html=1;fontSize=12;fontStyle=0;aspect=fixed;pointerEvents=1;shape=mxgraph.aws4.rds_sql_server_instance;" vertex="1" parent="1">
          <mxGeometry x="240" y="60" width="50" height="50" as="geometry" />
        </mxCell>
      </root>
    </mxGraphModel>
  </diagram>
</mxfile>
